<?xml version="1.0" encoding="utf-8"?>
<!-- Generator: Adobe Illustrator 25.2.0, SVG Export Plug-In . SVG Version: 6.00 Build 0)  -->
<svg version="1.1" id="Layer_1" xmlns="http://www.w3.org/2000/svg" xmlns:xlink="http://www.w3.org/1999/xlink" x="0px" y="0px"
	 viewBox="0 0 256 256" style="enable-background:new 0 0 256 256;" xml:space="preserve">
<style type="text/css">
	.st0{fill:#FFFFFF;}
	.st1{fill-rule:evenodd;clip-rule:evenodd;fill:#6729EF;}
</style>
<path class="st0" d="M25,12h206c7.2,0,13,5.8,13,13v206c0,7.2-5.8,13-13,13H25c-7.2,0-13-5.8-13-13V25C12,17.8,17.8,12,25,12z"/>
<g>
	<polygon class="st1" points="73.9,158.1 100.6,183.8 101.8,175.1 83,161.1 	"/>
	<path class="st1" d="M122.2,144.4l37.2-6.5l-4.4-6.7L122.2,144.4z M105,149.3l-33.3,5.8l9.9,3.5L105,149.3z"/>
	<polygon class="st1" points="117,71.6 102.5,185.6 111.8,181.7 133,96.6 	"/>
	<polygon class="st1" points="118.5,70.4 161.1,137.3 184.2,123 136.8,74.7 	"/>
</g>
</svg>
