<?xml version="1.0" encoding="utf-8"?>
<!-- Generator: Adobe Illustrator 25.2.0, SVG Export Plug-In . SVG Version: 6.00 Build 0)  -->
<svg version="1.1" id="Layer_1" xmlns="http://www.w3.org/2000/svg" xmlns:xlink="http://www.w3.org/1999/xlink" x="0px" y="0px"
	 viewBox="0 0 24 24" style="enable-background:new 0 0 24 24;" xml:space="preserve">
<style type="text/css">
	.st0{fill-rule:evenodd;clip-rule:evenodd;fill:#FFFFFF;}
</style>
<path class="st0" d="M20.4,19.5c1.4-1,2.2-2.4,2.2-4c0-3-2.9-5.3-6.4-5.3s-6.4,2.4-6.4,5.3c0,3,2.9,5.3,6.4,5.3
	c0.7,0,1.4-0.1,2.1-0.3h0.2c0.1,0,0.2,0,0.3,0.1l1.4,0.8h0.1c0.1,0,0.2-0.1,0.2-0.2V21l-0.2-1v-0.1C20.3,19.7,20.3,19.6,20.4,19.5z
	 M9,4.2c-4.3,0-7.7,2.9-7.7,6.4c0,1.9,1,3.7,2.7,4.8c0.1,0.1,0.2,0.2,0.2,0.4V16l-0.3,1.3v0.2c0,0.1,0.1,0.3,0.3,0.3h0.1l1.7-1
	c0.1-0.1,0.3-0.1,0.4-0.1h0.2C7.3,16.9,8.2,17,9,17h0.4c-0.2-0.5-0.3-1-0.3-1.6c0-3.2,3.1-5.9,7-5.9h0.4C16.1,6.6,12.9,4.2,9,4.2z
	 M14.1,14.6c-0.5,0-0.9-0.4-0.9-0.9s0.4-0.9,0.9-0.9s0.9,0.4,0.9,0.9C14.9,14.2,14.6,14.6,14.1,14.6z M18.4,14.6
	c-0.5,0-0.9-0.4-0.9-0.9s0.4-0.9,0.9-0.9s0.9,0.4,0.9,0.9C19.2,14.2,18.8,14.6,18.4,14.6z M6.5,9.6c-0.6,0-1-0.5-1-1
	c0-0.6,0.5-1,1-1s1,0.5,1,1S7,9.6,6.5,9.6z M11.6,9.6c-0.6,0-1-0.5-1-1c0-0.6,0.5-1,1-1c0.6,0,1,0.5,1,1S12.2,9.6,11.6,9.6z"/>
</svg>
